<svg xmlns="http://www.w3.org/2000/svg" width="400" height="300" viewBox="0 0 400 300"><path fill="#f8fafc" stroke="#e2e8f0" stroke-width="2" d="M0 0H400V300H0z"/><text x="200" y="30" fill="#1f2937" font-family="Arial, sans-serif" font-size="18" font-weight="bold" text-anchor="middle">Cyber Safety Scene</text><rect width="80" height="60" x="80" y="100" fill="none" stroke="#1f2937" stroke-width="3" rx="5"/><path fill="none" stroke="#1f2937" d="M85 105H155V155H85z"/><text x="120" y="50" fill="#059669" font-family="Arial, sans-serif" font-size="14" font-weight="bold" text-anchor="middle">SAFE</text><circle cx="120" cy="130" r="15" fill="none" stroke="#059669" stroke-width="2"/><circle cx="115" cy="125" r="3" fill="none" stroke="#059669"/><circle cx="125" cy="125" r="3" fill="none" stroke="#059669"/><ellipse cx="120" cy="135" fill="none" stroke="#059669" rx="2" ry="1"/><path fill="none" stroke="#059669" stroke-width="2" d="M 120 100 L 105 110 L 120 130 L 135 110 Z"/><path fill="none" stroke="#059669" stroke-width="2" d="M 110 120 L 115 125 L 130 110"/><text x="280" y="50" fill="#dc2626" font-family="Arial, sans-serif" font-size="14" font-weight="bold" text-anchor="middle">UNSAFE</text><circle cx="280" cy="130" r="15" fill="none" stroke="#dc2626" stroke-width="2"/><circle cx="275" cy="125" r="3" fill="none" stroke="#dc2626"/><circle cx="285" cy="125" r="3" fill="none" stroke="#dc2626"/><ellipse cx="280" cy="135" fill="none" stroke="#dc2626" rx="2" ry="1"/><path fill="none" stroke="#dc2626" stroke-width="2" d="M280 100 270 120 290 120ZM280 105 280 115"/><circle cx="280" cy="118" r="1" fill="none" stroke="#dc2626"/><path fill="none" stroke="#dc2626" stroke-width="2" d="M 275 120 L 285 130 M 285 120 L 275 130"/><path fill="none" stroke="#059669" stroke-width="2" d="M 120 100 L 200 80"/><path fill="none" stroke="#dc2626" stroke-width="2" d="M 280 100 L 200 80"/><path fill="none" stroke="#1f2937" stroke-width="2" d="M 200 60 Q 190 50 200 40 Q 210 30 220 40 Q 230 30 240 40 Q 250 50 240 60 Q 230 70 220 60 Q 210 70 200 60"/><circle cx="200" cy="80" r="3" fill="none" stroke="#1f2937"/><path fill="none" stroke="#1f2937" stroke-dasharray="2,2" d="M 200 80 L 200 100"/><circle cx="50" cy="50" r="3" fill="none" stroke="#1f2937"/><circle cx="350" cy="50" r="3" fill="none" stroke="#1f2937"/><circle cx="50" cy="250" r="3" fill="none" stroke="#1f2937"/><circle cx="350" cy="250" r="3" fill="none" stroke="#1f2937"/><text x="200" y="280" fill="#6b7280" font-family="Arial, sans-serif" font-size="12" text-anchor="middle">Complete scene showing safe and unsafe online behaviors!</text></svg>