<svg xmlns="http://www.w3.org/2000/svg" width="400" height="300" viewBox="0 0 400 300"><path fill="#f8fafc" stroke="#e2e8f0" stroke-width="2" d="M0 0H400V300H0z"/><text x="200" y="30" fill="#1f2937" font-family="Arial, sans-serif" font-size="18" font-weight="bold" text-anchor="middle">Digital Footprint Map</text><path fill="none" stroke="#1f2937" stroke-width="3" d="M 80 200 Q 120 180 160 190 Q 200 200 240 180 Q 280 160 320 170"/><ellipse cx="100" cy="200" fill="none" stroke="#1f2937" stroke-width="2" rx="15" ry="8"/><ellipse cx="140" cy="190" fill="none" stroke="#1f2937" stroke-width="2" rx="15" ry="8"/><ellipse cx="180" cy="200" fill="none" stroke="#1f2937" stroke-width="2" rx="15" ry="8"/><ellipse cx="220" cy="180" fill="none" stroke="#1f2937" stroke-width="2" rx="15" ry="8"/><ellipse cx="260" cy="170" fill="none" stroke="#1f2937" stroke-width="2" rx="15" ry="8"/><ellipse cx="300" cy="180" fill="none" stroke="#1f2937" stroke-width="2" rx="15" ry="8"/><rect width="40" height="30" x="60" y="120" fill="none" stroke="#1f2937" stroke-width="2" rx="3"/><path fill="none" stroke="#1f2937" d="M65 125H95V145H65zM70 155H90V160H70z"/><rect width="20" height="35" x="320" y="120" fill="none" stroke="#1f2937" stroke-width="2" rx="3"/><path fill="none" stroke="#1f2937" d="M325 125H335V150H325z"/><rect width="40" height="25" x="180" y="100" fill="none" stroke="#1f2937" stroke-width="2" rx="3"/><path fill="none" stroke="#1f2937" d="M185 105H215V120H185z"/><path fill="none" stroke="#1f2937" stroke-width="2" d="M 200 80 Q 190 70 200 60 Q 210 50 220 60 Q 230 50 240 60 Q 250 70 240 80 Q 230 90 220 80 Q 210 90 200 80"/><path fill="none" stroke="#1f2937" stroke-dasharray="3,3" d="M100 200 60 130M140 190 200 110M180 200 200 125M220 180 200 125M260 170 240 125M300 180 340 130"/><circle cx="50" cy="50" r="3" fill="none" stroke="#1f2937"/><circle cx="350" cy="50" r="3" fill="none" stroke="#1f2937"/><circle cx="50" cy="250" r="3" fill="none" stroke="#1f2937"/><circle cx="350" cy="250" r="3" fill="none" stroke="#1f2937"/><text x="200" y="280" fill="#6b7280" font-family="Arial, sans-serif" font-size="12" text-anchor="middle">Trace your digital journey and learn about online privacy!</text></svg>