<svg xmlns="http://www.w3.org/2000/svg" width="400" height="300" viewBox="0 0 400 300"><path fill="#f8fafc" stroke="#e2e8f0" stroke-width="2" d="M0 0H400V300H0z"/><text x="200" y="30" fill="#1f2937" font-family="Arial, sans-serif" font-size="18" font-weight="bold" text-anchor="middle">Password Treasure Chest</text><rect width="160" height="60" x="120" y="180" fill="none" stroke="#1f2937" stroke-width="3" rx="10"/><path fill="none" stroke="#1f2937" stroke-width="3" d="M 120 180 Q 200 140 280 180"/><rect width="20" height="25" x="190" y="160" fill="none" stroke="#1f2937" stroke-width="2" rx="3"/><path fill="none" stroke="#1f2937" stroke-width="2" d="M 195 160 Q 200 155 205 160"/><circle cx="200" cy="170" r="3" fill="none" stroke="#1f2937"/><path fill="none" stroke="#1f2937" d="M198 170H202V178H198z"/><circle cx="150" cy="200" r="8" fill="none" stroke="#1f2937" stroke-width="2"/><circle cx="180" cy="195" r="6" fill="none" stroke="#1f2937" stroke-width="2"/><circle cx="220" cy="200" r="7" fill="none" stroke="#1f2937" stroke-width="2"/><circle cx="250" cy="195" r="5" fill="none" stroke="#1f2937" stroke-width="2"/><circle cx="160" cy="210" r="4" fill="none" stroke="#1f2937"/><circle cx="190" cy="215" r="4" fill="none" stroke="#1f2937"/><circle cx="220" cy="210" r="4" fill="none" stroke="#1f2937"/><circle cx="240" cy="215" r="4" fill="none" stroke="#1f2937"/><path fill="none" stroke="#1f2937" stroke-width="2" d="M100 100Q120 80 140 100M260 100Q280 80 300 100"/><path fill="none" stroke="#1f2937" d="M 0 -8 L 2 -2 L 8 0 L 2 2 L 0 8 L -2 2 L -8 0 L -2 -2 Z" transform="translate(80 120)"/><path fill="none" stroke="#1f2937" d="M 0 -8 L 2 -2 L 8 0 L 2 2 L 0 8 L -2 2 L -8 0 L -2 -2 Z" transform="translate(320 120)"/><text x="200" y="280" fill="#6b7280" font-family="Arial, sans-serif" font-size="12" text-anchor="middle">Color the treasure chest that keeps passwords safe!</text></svg>