<svg xmlns="http://www.w3.org/2000/svg" width="400" height="300" viewBox="0 0 400 300"><path fill="#f8fafc" stroke="#e2e8f0" stroke-width="2" d="M0 0H400V300H0z"/><text x="200" y="30" fill="#1f2937" font-family="Arial, sans-serif" font-size="18" font-weight="bold" text-anchor="middle">Privacy Shield</text><path fill="none" stroke="#1f2937" stroke-width="4" d="M 200 60 L 140 100 L 140 180 L 200 240 L 260 180 L 260 100 Z"/><path fill="none" stroke="#1f2937" stroke-width="2" d="M 200 80 L 160 110 L 160 170 L 200 220 L 240 170 L 240 110 Z"/><circle cx="200" cy="140" r="30" fill="none" stroke="#1f2937" stroke-width="3"/><rect width="20" height="15" x="190" y="130" fill="none" stroke="#1f2937" stroke-width="2" rx="3"/><path fill="none" stroke="#1f2937" stroke-width="2" d="M 195 130 Q 200 125 205 130"/><path fill="none" stroke="#1f2937" d="M 0 -10 L 3 -3 L 10 0 L 3 3 L 0 10 L -3 3 L -10 0 L -3 -3 Z" transform="translate(120 80)"/><path fill="none" stroke="#1f2937" d="M 0 -10 L 3 -3 L 10 0 L 3 3 L 0 10 L -3 3 L -10 0 L -3 -3 Z" transform="translate(280 80)"/><path fill="none" stroke="#1f2937" d="M 0 -10 L 3 -3 L 10 0 L 3 3 L 0 10 L -3 3 L -10 0 L -3 -3 Z" transform="translate(120 200)"/><path fill="none" stroke="#1f2937" d="M 0 -10 L 3 -3 L 10 0 L 3 3 L 0 10 L -3 3 L -10 0 L -3 -3 Z" transform="translate(280 200)"/><circle cx="200" cy="100" r="2" fill="none" stroke="#1f2937"/><circle cx="200" cy="180" r="2" fill="none" stroke="#1f2937"/><circle cx="160" cy="140" r="2" fill="none" stroke="#1f2937"/><circle cx="240" cy="140" r="2" fill="none" stroke="#1f2937"/><text x="200" y="280" fill="#6b7280" font-family="Arial, sans-serif" font-size="12" text-anchor="middle">Design your own privacy protection shield!</text></svg>