<svg xmlns="http://www.w3.org/2000/svg" width="400" height="300" viewBox="0 0 400 300"><path fill="#f8fafc" stroke="#e2e8f0" stroke-width="2" d="M0 0H400V300H0z"/><text x="200" y="30" fill="#1f2937" font-family="Arial, sans-serif" font-size="18" font-weight="bold" text-anchor="middle">Privacy Garden</text><path fill="none" stroke="#1f2937" stroke-width="2" d="M 0 220 Q 100 200 200 220 Q 300 240 400 220 L 400 300 L 0 300 Z"/><path fill="none" stroke="#1f2937" stroke-width="2" d="M80 220 80 180Q60 160 80 140 100 160 80 180M320 220 320 180Q300 160 320 140 340 160 320 180"/><g fill="none" stroke="#1f2937" transform="translate(120 200)"><circle r="8" stroke-width="2"/><path d="M -8 0 L 8 0 M 0 -8 L 0 8 M -6 -6 L 6 6 M -6 6 L 6 -6"/></g><g fill="none" stroke="#1f2937" transform="translate(180 190)"><circle r="8" stroke-width="2"/><path d="M -8 0 L 8 0 M 0 -8 L 0 8 M -6 -6 L 6 6 M -6 6 L 6 -6"/></g><g fill="none" stroke="#1f2937" transform="translate(240 200)"><circle r="8" stroke-width="2"/><path d="M -8 0 L 8 0 M 0 -8 L 0 8 M -6 -6 L 6 6 M -6 6 L 6 -6"/></g><g fill="none" stroke="#1f2937" transform="translate(280 190)"><circle r="8" stroke-width="2"/><path d="M -8 0 L 8 0 M 0 -8 L 0 8 M -6 -6 L 6 6 M -6 6 L 6 -6"/></g><circle cx="200" cy="160" r="25" fill="none" stroke="#1f2937" stroke-width="2"/><circle cx="190" cy="150" r="6" fill="none" stroke="#1f2937"/><circle cx="210" cy="150" r="6" fill="none" stroke="#1f2937"/><ellipse cx="200" cy="165" fill="none" stroke="#1f2937" rx="4" ry="3"/><path fill="none" stroke="#1f2937" d="M 195 170 Q 200 175 205 170"/><path fill="none" stroke="#1f2937" stroke-width="2" d="M 200 120 L 180 140 L 200 180 L 220 140 Z"/><circle cx="200" cy="150" r="8" fill="none" stroke="#1f2937"/><path fill="none" stroke="#1f2937" stroke-width="2" d="M50 200H350V220H50z"/><path fill="none" stroke="#1f2937" d="M60 180H65V220H60zM120 180H125V220H120zM180 180H185V220H180zM240 180H245V220H240zM300 180H305V220H300zM335 180H340V220H335z"/><circle cx="100" cy="100" r="3" fill="none" stroke="#1f2937"/><circle cx="300" cy="100" r="3" fill="none" stroke="#1f2937"/><circle cx="100" cy="250" r="3" fill="none" stroke="#1f2937"/><circle cx="300" cy="250" r="3" fill="none" stroke="#1f2937"/><text x="200" y="280" fill="#6b7280" font-family="Arial, sans-serif" font-size="12" text-anchor="middle">Beautiful garden scene with privacy-themed elements!</text></svg>